<?xml version="1.0" standalone="no"?>
<!DOCTYPE svg PUBLIC "-//W3C//DTD SVG 20010904//EN"
 "http://www.w3.org/TR/2001/REC-SVG-20010904/DTD/svg10.dtd">
<svg version="1.0" xmlns="http://www.w3.org/2000/svg"
 width="512.000000pt" height="512.000000pt" viewBox="0 0 512.000000 512.000000"
 preserveAspectRatio="xMidYMid meet">
<metadata>
Created by potrace 1.14, written by Peter Selinger 2001-2017
</metadata>
<g transform="translate(0.000000,512.000000) scale(0.100000,-0.100000)"
fill="#000000" stroke="none">
<path d="M29 4817 c-3 -37 -4 -1324 -1 -1334 3 -10 106 -13 471 -13 l467 0 -1
-1577 c0 -868 1 -1584 3 -1590 6 -18 4122 -18 4123 0 0 7 1 310 2 675 l2 662
-75 0 c-41 1 -667 2 -1390 3 l-1315 2 0 237 0 238 793 0 792 0 -2 392 -3 392
-790 1 -790 0 0 280 0 280 1193 3 c943 2 1192 5 1193 15 0 16 0 1284 0 1319
l-1 27 -2335 0 c-1833 0 -2335 -2 -2336 -12z"/>
</g>
</svg>
